<?xml version="1.0" standalone="no"?>
<!DOCTYPE svg PUBLIC "-//W3C//DTD SVG 20010904//EN"
 "http://www.w3.org/TR/2001/REC-SVG-20010904/DTD/svg10.dtd">
<svg version="1.0" xmlns="http://www.w3.org/2000/svg"
 width="1024.000000pt" height="1024.000000pt" viewBox="0 0 1024.000000 1024.000000"
 preserveAspectRatio="xMidYMid meet">

<g transform="translate(0.000000,1024.000000) scale(0.100000,-0.100000)"
fill="#000000" stroke="none">
<path d="M0 5120 l0 -5120 5120 0 5120 0 0 5120 0 5120 -5120 0 -5120 0 0
-5120z m4423 639 c38 -19 57 -51 57 -97 0 -35 -6 -49 -29 -73 -24 -24 -38 -29
-76 -29 -40 0 -52 5 -81 34 -26 26 -34 42 -34 71 0 52 53 105 105 105 20 0 46
-5 58 -11z m3626 -3 c45 -24 65 -91 40 -139 -19 -38 -51 -57 -97 -57 -37 0
-50 6 -78 34 -26 26 -34 42 -34 71 0 29 8 45 34 71 38 38 85 45 135 20z m575
4 c25 -9 26 -13 26 -85 l0 -75 -59 0 c-52 0 -62 -3 -80 -26 -15 -19 -21 -41
-21 -78 l0 -51 77 0 78 0 3 -77 3 -78 -80 0 -81 0 -2 -307 -3 -308 -94 0 -94
0 -1 307 -1 308 -52 0 -53 0 0 80 0 80 53 0 52 0 0 63 c0 34 4 79 8 100 13 62
79 124 157 148 37 11 135 11 164 -1z m-1909 -15 c115 -30 186 -97 225 -211 30
-87 33 -84 -77 -84 l-98 1 -20 42 c-27 56 -69 77 -158 77 -87 0 -134 -21 -154
-68 -18 -43 -10 -82 25 -115 32 -31 74 -49 202 -89 124 -39 182 -69 235 -122
57 -57 79 -124 73 -220 -8 -125 -67 -204 -194 -263 -70 -32 -209 -43 -306 -23
-154 29 -259 139 -270 280 l-3 35 91 3 92 3 6 -28 c20 -76 94 -119 206 -117
119 2 186 55 176 139 -8 67 -50 96 -220 150 -238 75 -313 143 -324 294 -8 118
32 201 130 266 95 62 239 82 363 50z m-3005 -440 l0 -446 230 3 230 3 0 -97 0
-98 -330 0 -330 0 0 540 0 540 100 0 100 0 0 -445z m1942 136 l3 -309 133 159
134 159 104 0 c57 0 104 -3 104 -8 0 -8 -65 -90 -178 -225 l-74 -88 141 -224
c78 -124 141 -227 141 -230 0 -3 -49 -5 -108 -5 -91 0 -111 3 -124 18 -8 9
-53 81 -99 159 l-84 143 -47 -47 -48 -47 0 -113 0 -113 -95 0 -95 0 0 540 0
540 95 0 95 0 2 -309z m1618 119 c0 -104 2 -190 4 -190 3 0 18 12 33 26 49 47
100 64 188 63 132 0 204 -40 252 -137 l28 -57 3 -297 3 -298 -95 0 -95 0 -3
263 c-3 231 -5 266 -21 295 -25 45 -75 65 -151 60 -52 -4 -63 -8 -92 -40 -18
-20 -37 -53 -43 -75 -6 -22 -11 -137 -11 -271 l0 -233 -95 2 -95 1 0 539 0
539 95 0 95 0 0 -190z m1730 -15 l0 -95 85 0 85 0 0 -80 0 -80 -85 0 -85 0 0
-205 c0 -246 -1 -245 105 -245 l65 0 0 -79 c0 -49 -4 -83 -11 -87 -20 -12
-172 -8 -214 5 -51 17 -92 55 -116 106 -16 35 -19 68 -19 273 l0 232 -50 0
-50 0 0 70 c0 39 0 73 0 78 0 4 22 8 50 10 l50 3 0 95 0 94 95 0 95 0 0 -95z
m-3861 -95 c64 -18 109 -59 144 -129 l32 -66 0 -290 0 -290 -95 0 -95 0 -5
272 -5 273 -33 32 c-31 31 -36 33 -106 33 -66 0 -78 -3 -101 -25 -49 -45 -50
-52 -55 -325 l-5 -260 -95 0 -95 0 0 385 0 385 95 0 95 0 -3 -37 c-2 -21 -1
-38 3 -38 3 0 24 14 45 32 21 18 53 38 71 44 42 15 162 18 208 4z m-668 -390
l0 -385 -93 0 -93 0 -3 375 c-1 206 0 381 3 388 3 9 28 12 95 10 l90 -3 1
-385z m3619 0 l0 -390 -95 0 -95 0 0 390 0 390 95 0 95 0 0 -390z"/>
</g>
</svg>
